<?xml version="1.0" standalone="no"?><!DOCTYPE svg PUBLIC "-//W3C//DTD SVG 1.1//EN" "http://www.w3.org/Graphics/SVG/1.1/DTD/svg11.dtd"><svg t="1557320429173" class="icon" style="" viewBox="0 0 1024 1024" version="1.1" xmlns="http://www.w3.org/2000/svg" p-id="2004" xmlns:xlink="http://www.w3.org/1999/xlink" width="200" height="200"><defs><style type="text/css"></style></defs><path d="M765.38269676 638.66731462c-10.61662464 10.61662464-10.61662464 27.82287834 0 38.43950299 5.30831231 5.30831231 12.26403191 7.87094583 19.21975147 7.87094587s13.91143919-2.56263353 19.21975149-7.87094587l160.34764106-164.3746366-160.34764106-164.37463659c-10.61662464-10.61662464-27.82287834-10.61662464-38.43950296 0-10.61662464 10.61662464-10.61662464 27.82287834 0 38.25645772l98.11225523 98.11225526H395.08215125c-15.0097107 0-27.09069735 12.08098666-27.09069735 27.09069733 0 15.0097107 12.08098666 27.09069735 27.09069735 27.09069738h470.24325325l-99.94270774 99.75966251zM150.53369411 78.18275196c-30.01942139 0-54.18139467 24.34501856-54.1813947 54.18139467v759.27170674c0 30.01942139 24.34501856 54.18139467 54.1813947 54.18139467h461.2740359c30.01942139 0 54.18139467-24.34501856 54.18139469-54.18139467V646.90435097h-54.73053042v212.14944747c0 18.12147999-14.64362017 32.76510016-32.7651002 32.76510017H183.84793003c-18.12147999 0-32.76510016-14.64362017-32.76510017-32.76510017l0.91522627-693.37541588c0-18.12147999 14.64362017-32.76510016 32.76510017-32.76510018h394.09642829c18.12147999 0 32.76510016 14.64362017 32.76510018 32.76510018V376.54651327h54.73053044V132.36414663c0-30.01942139-24.34501856-54.18139467-54.18139467-54.18139467H150.53369411z m0 0" fill="#2c2c2c" p-id="2005"></path></svg>