<?xml version="1.0" standalone="no"?><!DOCTYPE svg PUBLIC "-//W3C//DTD SVG 1.1//EN" "http://www.w3.org/Graphics/SVG/1.1/DTD/svg11.dtd"><svg t="1556509950469" class="icon" style="" viewBox="0 0 1024 1024" version="1.1" xmlns="http://www.w3.org/2000/svg" p-id="5012" xmlns:xlink="http://www.w3.org/1999/xlink" width="200" height="200"><defs><style type="text/css"></style></defs><path d="M817.104 809.22c-9.076-23.168-12.25-43.07-14.336-68.82-1.982-24.28-5.63-46.614-8.38-65.168-4.628-31.128-9.308-50.68-20.198-75.748-10.9-25.068-35.914-48.86-67.864-59.04v-2.184c26.142-3.626 50.124-11.606 71.912-23.97 21.79-12.344 40.668-27.786 56.66-46.308 15.97-18.52 28.334-39.772 37.052-63.742 8.706-23.97 13.07-49.038 13.07-75.18 0-37.768-5.45-69.74-16.348-95.892-10.89-26.142-26.532-47.394-46.846-63.744-20.354-16.338-44.862-27.954-73.556-34.87-28.714-6.894-60.474-9.972-95.346-9.266H281.37l-0.02 0.096c-4.598 0-130.038 0-218.752 0.052 188.92 14.568 203.834 58.2 189.014 139.302L119.014 903.27h169.988l64.28-303.998h161.268c16.7 0 31.96 1.276 45.76 3.816 13.788 2.552 25.604 7.454 35.408 14.716 9.814 7.264 21.02 15.59 27.976 27.576 6.958 11.986 11.67 33.458 13.608 52.168 2.732 26.47 7.78 48.596 11.892 74.76 4.3 27.5 9.328 45.01 20.82 70.36 6.154 13.61 20.848 31.624 28.248 37.338 12.714 9.824 29.906 21.334 60.454 23.274h200.916c-32.446-8.348-78.068-30.168-99.816-45.094-13.502-9.246-35.45-30.434-42.712-48.964z m-157.096-360.834c-16.34 9.804-35.048 17.078-56.11 21.79-21.082 4.732-43.23 7.082-66.472 7.082h-157.992l45.77-219.014h162.344c16.708 0 32.7 1.086 47.952 3.268 15.242 2.182 28.682 6.536 40.31 13.072 11.616 6.536 20.872 16.17 27.786 28.872 6.894 12.724 10.352 29.61 10.352 50.672 0 21.788-4.912 40.5-14.716 56.11-9.802 15.644-22.874 28.346-39.224 38.148z" p-id="5013" fill="#8a8a8a"></path></svg>